<svg xmlns="http://www.w3.org/2000/svg" viewBox="143.00 158.00 90.00 90.00"><path d="M199 244L194 244C178.54 244 166 231.46 166 216L166 190C166 174.54 178.54 162 194 162L199 162L199 244Z" fill="#e5f0ff"/><path d="M199 232L195 232C185.61 232 178 224.39 178 215L178 191C178 181.61 185.61 174 195 174L199 174L199 203L199 232Z" fill="#cce1ff"/><path d="M206 215.9C206 219.27 203.27 222 199.9 222L199.9 222C194.43 222 190 217.57 190 212.1L190 193.9C190 188.43 194.43 184 199.9 184L199.9 184C203.27 184 206 186.73 206 190.1L206 215.9Z" fill="#0267f4"/><path d="M199 171L210 171C210 171 210 171 210 171L210 239C210 239 210 239 210 239L199 239C199 239 199 239 199 239L199 171C199 171 199 171 199 171Z" fill="#ffffff"/></svg>